<?xml version="1.0" encoding="UTF-8"?>
<!-- Created with Inkscape (http://www.inkscape.org/) -->
<svg width="700" height="700" version="1.1" viewBox="0 0 185.21 185.21" xmlns="http://www.w3.org/2000/svg" xmlns:cc="http://creativecommons.org/ns#" xmlns:dc="http://purl.org/dc/elements/1.1/" xmlns:rdf="http://www.w3.org/1999/02/22-rdf-syntax-ns#">
 <metadata>
  <rdf:RDF>
   <cc:Work rdf:about="">
    <dc:format>image/svg+xml</dc:format>
    <dc:type rdf:resource="http://purl.org/dc/dcmitype/StillImage"/>
    <dc:title/>
   </cc:Work>
  </rdf:RDF>
 </metadata>
 <g transform="translate(0 -111.79)">
  <rect transform="rotate(-45)" x="-145.19" y="143.86" width="132.29" height="132.29" rx="9.2604" ry="9.2604" fill="#fee011"/>
  <rect transform="rotate(-45)" x="-141.89" y="147.17" width="125.68" height="125.68" rx="5.9531" ry="5.9531" fill="none" stroke="#000" stroke-width="3.3073"/>
  <path transform="translate(0 111.79)" d="m92.604 37.042 2e-4 24.758s0 3.0235-0.60792 5.9852-1.7991 5.7407-1.7991 5.7407l-10.4 24.267s-1.1914 2.7805-1.7991 5.7407-0.60792 5.9852-0.60792 5.9852l2.7e-4 41.294" fill="none" stroke="#000" stroke-width="10.583"/>
  <path transform="translate(0 111.79)" d="m92.604 23.813 14.472 21.152s1.5127 2.2108-0.16272 4.3012-4.1625 1.0954-4.1625 1.0954l-10.147-4.0588-10.147 4.0588s-2.3185 0.74859-4.1625-1.0954-0.16272-4.3012-0.16272-4.3012z"/>
  <path transform="translate(0 111.79)" d="m92.604 37.042-1.99e-4 24.758s1e-6 3.0235 0.60792 5.9852 1.7991 5.7407 1.7991 5.7407l10.4 24.267s1.1914 2.7805 1.7991 5.7407 0.60792 5.9852 0.60792 5.9852l-2.7e-4 41.294" fill="none" stroke="#000" stroke-width="10.583"/>
 </g>
</svg>
